<?xml version="1.0" encoding="UTF-8"?>
<svg width="225px" height="225px" viewBox="0 0 225 225" version="1.1" xmlns="http://www.w3.org/2000/svg" xmlns:xlink="http://www.w3.org/1999/xlink">
    <!-- Generator: Sketch 55.2 (78181) - https://sketchapp.com -->
    <title>penguin rock</title>
    <desc>Created with Sketch.</desc>
    <g id="Page-1" stroke="none" stroke-width="1" fill="none" fill-rule="evenodd">
        <g id="penguin-rock" fill-rule="nonzero">
            <polygon id="Path" fill="#7F3484" points="0 0 0 225 225 225 225 0"></polygon>
            <polygon id="Path" fill="#E20D18" points="0 225 225 0 225 225"></polygon>
            <path d="M112.505865,203.90625 C162.991909,203.90625 203.90625,162.980179 203.90625,112.494135 C203.90625,62.0080907 162.991909,21.09375 112.505865,21.09375 C62.0198207,21.09375 21.09375,62.0080907 21.09375,112.494135 C21.09375,162.980179 62.0198207,203.90625 112.505865,203.90625 L112.505865,203.90625 Z" id="Path" fill="#FFFFFF"></path>
            <path d="M221.986607,78.6097257 C211.000522,75.667854 206.99066,73.2319843 202.992522,78.3979109 C197.610864,78.5861907 179.273365,70.2783451 149.129048,86.4233369 C157.312919,84.8111912 168.979039,84.0110021 178.452632,81.3633176 C183.482548,79.9629867 187.750355,76.5739505 190.822237,81.3633176 C183.400474,83.5638376 151.216052,99.0733851 147.745528,117.242385 C149.762184,123.34971 143.946711,128.833359 139.960298,131.951743 C140.956901,135.05836 141.038974,138.388558 139.960298,141.601082 C135.680766,141.965874 135.246951,138.741583 133.546863,136.105666 C131.237088,125.314881 112.547846,110.170125 93.6710083,121.372773 C89.3914767,118.313226 84.3146625,116.030334 84.5022584,108.499142 C90.1418603,106.639879 89.6376963,98.7203605 88.1721033,93.3190841 C85.0415967,94.4722978 84.7719275,92.4012202 81.7586683,92.4012202 C78.47574,93.6838762 69.7642552,106.404529 67.0910135,109.887705 C63.7494615,109.546448 64.3005244,105.310153 64.3474234,101.603395 C70.2449697,88.6238569 89.8604665,64.3239968 104.211553,61.0997054 C113.978265,50.8502245 138.95197,56.180896 143.618418,61.0997054 C148.56626,61.2173803 151.837464,62.9825033 155.073493,64.8064638 C182.157652,69.5369934 220.157547,64.8653012 221.986607,78.6097257 L221.986607,78.6097257 Z" id="Path" fill="#000000"></path>
            <path d="M67.5108318,192.303571 C46.3101559,180.833747 35,161.026513 35,161.026513 C45.1603682,138.816976 60.2835953,122.424783 76.4392848,124.120527 C77.9293157,126.405071 78.8913829,126.770127 79.1964286,130.550223 C77.3074918,132.045775 57.538184,133.09384 67.5108318,192.303571 L67.5108318,192.303571 Z" id="Path" fill="#000000"></path>
            <path d="M95.4241071,56.3441306 L110.039235,60.2678571 C110.039235,60.2678571 116.896293,34.9842696 130.961453,56.3799092 C130.961453,56.3799092 136.636662,57.2624496 139.620536,58.9678991 C139.620536,58.9678991 119.10787,16.2362508 95.4241071,56.3441306 L95.4241071,56.3441306 Z" id="Path" fill="#E20D18"></path>
            <path d="M99.9441964,92.4107143 C111.873855,92.4107143 121.540179,83.6419561 121.540179,72.8236607 C121.540179,62.0053654 111.873855,53.2366071 99.9441964,53.2366071 C88.0263264,53.2366071 78.3482143,62.0053654 78.3482143,72.8236607 C78.3482143,83.6419561 88.0263264,92.4107143 99.9441964,92.4107143 L99.9441964,92.4107143 Z" id="Path" fill="#E20D18"></path>
        </g>
    </g>
</svg>