<?xml version="1.0" encoding="UTF-8"?>
<svg width="225px" height="225px" viewBox="0 0 225 225" version="1.1" xmlns="http://www.w3.org/2000/svg" xmlns:xlink="http://www.w3.org/1999/xlink">
    <!-- Generator: Sketch 63.1 (92452) - https://sketch.com -->
    <title>Artboard</title>
    <desc>Created with Sketch.</desc>
    <g id="Artboard" stroke="none" stroke-width="1" fill="none" fill-rule="evenodd">
        <polygon id="Path" fill="#E20D18" fill-rule="nonzero" points="0 225 0 0 225 0 225 225"></polygon>
        <polygon id="Path" fill="#F08A05" fill-rule="nonzero" points="225 0 0 225 0 0"></polygon>
        <path d="M111.568282,202.192731 C161.63326,202.192731 202.212555,161.603524 202.212555,111.538546 C202.212555,61.4636564 161.63326,20.8843612 111.568282,20.8843612 C61.4933921,20.8843612 20.904185,61.4636564 20.904185,111.538546 C20.904185,161.603524 61.4933921,202.192731 111.568282,202.192731 L111.568282,202.192731 Z" id="Path" fill="#FFFFFF" fill-rule="nonzero"></path>
        <path d="M220.787445,78.6013216 C209.874449,75.6971366 205.89978,73.2786344 201.935022,78.3931718 C196.602423,78.5814978 178.404185,70.3645374 148.490088,86.3226872 C156.60793,84.7268722 168.194934,83.9339207 177.581498,81.3171806 C182.577093,79.9394273 186.819383,76.5792952 189.862335,81.3171806 C182.497797,83.4977974 150.571586,98.8314978 147.122247,116.79185 C149.114537,122.828194 143.355727,128.25 139.390969,131.332599 C140.382159,134.405286 140.471366,137.696035 139.390969,140.867841 C135.148678,141.22467 134.712555,138.042952 133.027533,135.426211 C130.747797,124.761013 112.192731,109.794053 93.4592511,120.875551 C89.2169604,117.842511 84.1817181,115.592511 84.3700441,108.148678 C89.9603524,106.305066 89.4647577,98.4845815 88.0077093,93.1420705 C84.8953744,94.2720264 84.6376652,92.2400881 81.6442731,92.2400881 C78.3832599,93.4988987 69.7400881,106.087004 67.0837004,109.51652 C63.7731278,109.189427 64.3281938,104.996696 64.3678414,101.329295 C70.2257709,88.503304 89.6828194,64.4867841 103.926211,61.2951542 C113.620044,51.1651982 138.389868,56.4284141 143.028634,61.2951542 C147.935022,61.4140969 151.176211,63.1585903 154.397577,64.9526432 C181.258811,69.6409692 218.973568,65.0121145 220.787445,78.6013216 L220.787445,78.6013216 Z" id="Path" fill="#000000" fill-rule="nonzero"></path>
        <path d="M66.8854626,190.585903 C45.8722467,179.256608 34.6618943,159.690529 34.6618943,159.690529 C44.7323789,137.745595 59.719163,121.549559 75.746696,123.22467 C77.2235683,125.484581 78.1751101,125.851322 78.472467,129.578194 C76.6090308,131.055066 57.003304,132.095815 66.8854626,190.585903 L66.8854626,190.585903 Z" id="Path" fill="#000000" fill-rule="nonzero"></path>
        <path d="M94.7477974,55.6685789 L109.177047,59.3549594 C109.177047,59.3549594 115.944139,35.5844909 129.82258,55.6972295 C129.82258,55.6972295 135.419201,56.5280976 138.360132,58.1325327 C138.360132,58.1325327 118.127707,17.9739068 94.7477974,55.6685789 L94.7477974,55.6685789 Z" id="Path" fill="#E20D18" fill-rule="nonzero"></path>
        <path d="M99.2725761,91.5165198 C111.035259,91.5165198 120.578194,82.8609356 120.578194,72.188326 C120.578194,61.5157164 111.035259,52.8601322 99.2725761,52.8601322 C87.4999834,52.8601322 77.9570485,61.5157164 77.9570485,72.188326 C77.9570485,82.8609356 87.4999834,91.5165198 99.2725761,91.5165198 L99.2725761,91.5165198 Z" id="Path" fill="#E20D18" fill-rule="nonzero"></path>
    </g>
</svg>