<?xml version="1.0" encoding="UTF-8"?>
<svg width="226px" height="226px" viewBox="0 0 226 226" version="1.1" xmlns="http://www.w3.org/2000/svg" xmlns:xlink="http://www.w3.org/1999/xlink">
    <!-- Generator: Sketch 55.1 (78136) - https://sketchapp.com -->
    <title>Group 2</title>
    <desc>Created with Sketch.</desc>
    <g id="Page-1" stroke="none" stroke-width="1" fill="none" fill-rule="evenodd">
        <g id="Streams" transform="translate(-27.000000, -1364.000000)" fill-rule="nonzero">
            <g id="logo-penguin-pluche" transform="translate(27.000000, 1364.000000)">
                <g id="Group-2">
                    <polygon id="Path" fill="#E30613" points="-5.68434189e-14 0 -5.68434189e-14 225.06 225.41 225.06 225.41 0"></polygon>
                    <polygon id="Path" fill="#7B161A" points="-5.68434189e-14 225.06 225.41 0 225.41 225.06"></polygon>
                    <path d="M112.55,203.99 C163.06,203.99 204.01,163.04 204.01,112.53 C204.01,62.02 163.07,21.07 112.55,21.07 C62.03,21.07 21.09,62.01 21.09,112.53 C21.09,163.04 62.04,203.99 112.55,203.99 L112.55,203.99 L112.55,203.99 L112.55,203.99 Z" id="Path" fill="#FFFFFF"></path>
                    <path d="M222.75,79.29 C211.74,76.36 207.73,73.93 203.73,79.09 C198.34,79.28 179.99,70.99 149.8,87.09 C158,85.48 169.68,84.68 179.16,82.04 C184.2,80.65 188.48,77.26 191.55,82.04 C184.11,84.24 151.9,99.71 148.43,117.83 C150.44,123.92 144.63,129.39 140.63,132.5 C141.62,135.6 141.72,138.92 140.63,142.12 C136.35,142.48 135.91,139.27 134.21,136.64 C131.91,125.88 113.19,110.78 94.3,121.95 C90.02,118.9 84.94,116.62 85.13,109.11 C90.77,107.25 90.27,99.36 88.79,93.97 C85.66,95.11 85.39,93.06 82.37,93.06 C79.09,94.33 70.37,107.03 67.69,110.49 C64.35,110.16 64.9,105.93 64.94,102.23 C70.85,89.29 90.48,65.05 104.86,61.84 C114.64,51.62 139.63,56.93 144.31,61.84 C149.26,61.96 152.53,63.72 155.78,65.53 C182.87,70.25 220.91,65.58 222.75,79.29 L222.75,79.29 L222.75,79.29 L222.75,79.29 Z" id="Path" fill="#000000"></path>
                    <path d="M67.48,192.27 C46.27,180.84 34.97,161.1 34.97,161.1 C45.13,138.96 60.25,122.62 76.42,124.31 C77.91,126.59 78.87,126.96 79.17,130.72 C77.28,132.22 57.51,133.27 67.48,192.27 L67.48,192.27 L67.48,192.27 L67.48,192.27 Z" id="Path" fill="#000000"></path>
                    <path d="M95.59,56.78 L110.26,60.64 C110.26,60.64 117.14,35.75 131.25,56.81 C131.25,56.81 136.94,57.68 139.93,59.36 C139.93,59.36 119.36,17.3 95.59,56.78 L95.59,56.78 L95.59,56.78 Z" id="Path" fill="#E30613"></path>
                    <path d="M100.15,92.81 C112.03,92.81 121.65,83.97 121.65,73.07 C121.65,62.17 112.03,53.33 100.15,53.33 C88.27,53.33 78.65,62.17 78.65,73.07 C78.65,83.97 88.28,92.81 100.15,92.81 L100.15,92.81 L100.15,92.81 L100.15,92.81 Z" id="Path" fill="#E30613"></path>
                </g>
            </g>
        </g>
    </g>
</svg>