<?xml version="1.0" encoding="UTF-8"?>
<svg width="225px" height="225px" viewBox="0 0 225 225" version="1.1" xmlns="http://www.w3.org/2000/svg" xmlns:xlink="http://www.w3.org/1999/xlink">
    <!-- Generator: Sketch 58 (84663) - https://sketch.com -->
    <title>beeldmerk</title>
    <desc>Created with Sketch.</desc>
    <g id="Page-1" stroke="none" stroke-width="1" fill="none" fill-rule="evenodd">
        <g id="Group" fill-rule="nonzero">
            <g id="penguin-blues">
                <g id="beeldmerk">
                    <polygon id="Path" fill="#E20D18" points="225 225 225 2.84217094e-14 1.42108547e-14 2.84217094e-14 1.42108547e-14 225"></polygon>
                    <polygon id="Path" fill="#015CA8" points="1.42108547e-14 225 1.42108547e-14 2.84217094e-14 225 2.84217094e-14"></polygon>
                    <path d="M112.061947,203.087389 C162.348451,203.087389 203.107301,162.318584 203.107301,112.022124 C203.107301,61.7356195 162.348451,20.9767699 112.061947,20.9767699 C61.7654867,20.9767699 20.9966814,61.7356195 20.9966814,112.022124 C20.9966814,162.318584 61.7654867,203.087389 112.061947,203.087389 L112.061947,203.087389 Z" id="Path" fill="#FFFFFF"></path>
                    <path d="M221.764381,78.9391593 C210.803097,76.0221239 206.810841,73.6028761 202.82854,78.7400442 C197.472345,78.9292035 179.193584,70.675885 149.147124,86.704646 C157.300885,85.1117257 168.939159,84.3053097 178.367257,81.6769912 C183.384956,80.2931416 187.646018,76.9181416 190.702434,81.6769912 C183.30531,83.8672566 151.237832,99.2688053 147.77323,117.308628 C149.774336,123.371681 143.990044,128.817478 140.007743,131.913717 C141.003319,135 141.09292,138.315265 140.007743,141.49115 C135.746681,141.849558 135.308628,138.663717 133.61615,136.035398 C131.326327,125.323009 112.689159,110.279867 93.8727876,121.410398 C89.6117257,118.373894 84.5542035,116.113938 84.7433628,108.627212 C90.3584071,106.775442 89.8606195,98.920354 88.3971239,93.5542035 C85.2710177,94.699115 85.0121681,92.6482301 82.005531,92.6482301 C78.7300885,93.9126106 70.0486726,106.54646 67.380531,110.001106 C64.0553097,109.672566 64.6128319,105.461283 64.6526549,101.777655 C70.5365044,88.8849558 90.079646,64.7621681 104.386062,61.5564159 C114.122788,51.3816372 139.002212,56.6780973 143.661504,61.5564159 C148.589602,61.675885 151.845133,63.4280973 155.080752,65.2300885 C182.060841,69.9391593 219.942478,65.289823 221.764381,78.9391593 L221.764381,78.9391593 Z" id="Path" fill="#000000"></path>
                    <path d="M67.1814159,191.419248 C46.0752212,180.039823 34.8152655,160.397124 34.8152655,160.397124 C44.9303097,138.345133 59.9834071,122.087389 76.0818584,123.759956 C77.5652655,126.029867 78.5210177,126.39823 78.8196903,130.141593 C76.9480088,131.634956 57.255531,132.670354 67.1814159,191.419248 L67.1814159,191.419248 Z" id="Path" fill="#000000"></path>
                    <path d="M95.1670354,56.5287611 L109.772124,60.3716814 C109.772124,60.3716814 116.621681,35.5918142 130.669248,56.5586283 C130.669248,56.5586283 136.334071,57.4247788 139.310841,59.0973451 C139.310841,59.0973451 118.831858,17.2234513 95.1670354,56.5287611 L95.1670354,56.5287611 Z" id="Path" fill="#E20D18"></path>
                    <path d="M99.7168142,92.3893805 C111.534292,92.3893805 121.121681,83.5984513 121.121681,72.7367257 C121.121681,61.8849558 111.534292,53.0940265 99.7168142,53.0940265 C87.8893805,53.0940265 78.3019912,61.8849558 78.3019912,72.7367257 C78.3019912,83.5984513 87.8893805,92.3893805 99.7168142,92.3893805 L99.7168142,92.3893805 Z" id="Path" fill="#E20D18"></path>
                </g>
            </g>
        </g>
    </g>
</svg>